<?xml version="1.0" encoding="UTF-8"?>
<!DOCTYPE svg PUBLIC "-//W3C//DTD SVG 1.1//EN" "http://www.w3.org/Graphics/SVG/1.1/DTD/svg11.dtd">
<!-- Creator: CorelDRAW 2020 (64-Bit) -->
<svg xmlns="http://www.w3.org/2000/svg" xml:space="preserve" version="1.1" style="shape-rendering:geometricPrecision; text-rendering:geometricPrecision; image-rendering:optimizeQuality; fill-rule:evenodd; clip-rule:evenodd"
viewBox="0 0 145972.6 151233.5"
 xmlns:xlink="http://www.w3.org/1999/xlink"
 xmlns:xodm="http://www.corel.com/coreldraw/odm/2003">
 <defs>
  <style type="text/css">
  </style>
  <linearGradient id="id0" gradientUnits="userSpaceOnUse" x1="29377.2" y1="66542.9" x2="123864.7" y2="65966.5">
   <stop offset="0" style="stop-opacity:1; stop-color:#393185"/>
   <stop offset="1" style="stop-opacity:1; stop-color:#3093B0"/>
  </linearGradient>
  <linearGradient id="id1" gradientUnits="userSpaceOnUse" xlink:href="#id0" x1="29380.2" y1="66543.9" x2="123864.7" y2="65967.5">
  </linearGradient>
  <linearGradient id="id2" gradientUnits="userSpaceOnUse" xlink:href="#id0" x1="29381.2" y1="66543.9" x2="123864.7" y2="65967.5">
  </linearGradient>
  <linearGradient id="id3" gradientUnits="userSpaceOnUse" xlink:href="#id0" x1="29380.2" y1="66543.9" x2="123865.7" y2="65967.5">
  </linearGradient>
 </defs>
 <g id="Слой_x0020_1">
  <metadata id="CorelCorpID_0Corel-Layer"/>
  <g id="_1601108347312">
   <path class="fil0" d="M140772.1 109046l0 -69943.1c1,-469 -124.1,-929.2 -362.5,-1333.1 -238.5,-404 -582.3,-735 -993.2,-960.6l-25156.2 -13555.5 -235.4 0 -42387.8 -22941.2c-380.3,-204.9 -806,-312.3 -1238.5,-312.3 -431.6,0 -857.2,107.4 -1237.5,312.3l-67779.4 36496.8c-416.8,221.7 -764.6,551.7 -1008,955.7 -243.4,404 -372.4,867.1 -373.5,1338.1l0 72993.5c-2,469 124.1,929.2 362.6,1333 238.5,404 581.3,736.1 992.2,960.7l67779.5 36496.8c380.3,204.9 806,312.3 1238.5,312.3 432.5,0 858.2,-107.4 1238.5,-312.3l19629.8 -10583.9c2215.9,2892.8 2059.2,9384.9 6465.4,10661.8 4405.2,1277.9 8029,-3806.2 11391.9,-4848.6 3362.7,1042.4 7246.7,6361 11391.8,4848.6 4145.1,-1512.5 4379.6,-7585.7 6413.1,-10609.5 3388.4,-1043.4 9567.1,912.3 12044.1,-2790.3 2476,-3701.7 -1043.4,-8759.1 -1043.4,-12329.8 182.2,-573.5 1876.9,-1746.9 2868.1,-2450.4 6907.8,-4301.7 6960.1,-9437 0,-13738.7zm-61288.4 -6386.6c529.2,1229.6 829.6,2545.9 886.7,3884 -1616.8,2163.7 -6022,4015 -7377.7,6699.9l0 -36079 62565.3 -33707.4 0 48670.9c-2398.1,-730.1 -6595.5,0 -8681.3,-704.5 -2032.6,-2971.6 -2059.3,-9358.2 -6386.6,-10609.5 -4327.3,-1251.3 -8029,3806.2 -11391.8,4848.6 -1285.8,-469.1 -2471.1,-1176.5 -3493.9,-2085.9 -6204.3,-5213.1 -10844,-3440.6 -12773.2,4275.2 -319.2,1274 -857.2,2482.9 -1590.2,3571.6 -1273,344.8 -2597.2,459.1 -3910.6,339 -7872.4,-521.2 -10845,3415 -7846.8,10897.2zm28206.6 -77034.2l-60114.9 34724.2 -15823.6 -8524.7 60140.5 -34697.6 15798 8498zm-63607.7 38764.9l0 18013.9 -4431.8 -10740.6c-162.5,-397.1 -420.7,-747.9 -751.7,-1020.8 -330.1,-272.8 -723.2,-460.1 -1143,-545.8 -420.7,-84.7 -855.2,-65.1 -1266.1,58.1 -409.8,123.2 -784.2,345.9 -1088.7,648.3l-5474.3 5422 0 -19447.5 14155.5 7612.3zm26303.1 -58811.4l16110.3 8654.8 -60140.6 34697.6 -18274 -9828.1 62304.3 -33524.2zm-2607.1 138660.5l-62565.3 -33707.4 0 -67075 19499.7 10427.2 0 28597.8c2,512.3 155.7,1012.9 440.4,1439.4 284.7,425.7 688.7,757.7 1161.7,954.8 472.9,198 994.1,252.2 1496.6,154.8 503.6,-96.6 967.6,-339 1333.1,-697.6l7168.8 -7091.1 8003.4 19213c195.1,475.9 527.2,883.8 953.8,1170.5 427.6,287.7 930.1,442.3 1444.4,445.4l521.2 0c598,-121.2 1134,-449.3 1515.3,-925.2 380.4,-476.9 582.3,-1072 570.5,-1681.8l0 -28258.8 18456.2 9959.2 0 67075zm2607.1 -71611.2l-17413.9 -9384.9 60114.9 -34724.2 19629.8 10583.9 -62330.8 33525.2zm2607 71611.2l0 -25704c1355.7,2607 5760.9,4536.2 7377.7,6699.9 -57.2,1338.1 -357.6,2654.4 -886.7,3884 -1511.4,3676.1 -2085.8,8863.6 2398.1,10427.3l-8889.1 4692.8zm64755.6 -25704c-8107.9,5214.1 -4406.2,8784.7 -2972.7,15901.4 -2945.9,964.6 -8237.9,-521.2 -10948.4,1694.7 -2711.5,2215.9 -3259.3,7247.7 -4822.9,9854.8 -2919.4,-1016.8 -6361,-5214.2 -9880.4,-5214.2 -3519.5,0 -7012.3,3936.2 -9723.7,5214.2 -1850.4,-2607 -2059.3,-8003.4 -4978.6,-9907 -2920.4,-1902.6 -7977.8,-860.2 -10870.7,-1563.7 0,-3128.2 3023.9,-7664.5 1772.5,-10949.4 -860.1,-3283.9 -6074.3,-5213.1 -7821.2,-7820.2 156.7,-625.6 2033.7,-1955.8 3023.9,-2607 8107.9,-5214.2 4431.8,-8784.7 2972.7,-15902.5 2971.5,-964.6 8237.9,522.3 10948.4,-1693.6 2711.5,-2215.9 3284.9,-7352.2 4822.9,-9854.8 2946,1016.7 6386.6,5214.1 9880.4,5214.1 3492.8,0 7012.3,-3936.2 9749.3,-5214.1 1824.8,2450.4 2033.7,8003.4 4953,9880.4 2920.4,1876.9 7976.9,860.2 10870.7,1564.6 0,3128.2 -3023.9,7663.5 -1772.5,10948.5 1251.3,3284.9 6048.7,5214.1 7821.1,7821.1 -208.8,625.7 -2033.6,1929.2 -3023.8,2632.7z"/>
   <path class="fil1" d="M109488.4 107143.4c0,-2461.2 -977.3,-4821.9 -2717.4,-6563 -1741,-1739.9 -4101.7,-2718.3 -6563,-2718.3 -2461.2,0 -4821.9,978.4 -6561.9,2718.3 -1740,1741.1 -2718.4,4101.8 -2718.4,6563 0,2461.3 978.4,4822 2718.4,6562 1740,1741 4100.8,2718.3 6561.9,2718.3 2461.3,0 4822,-977.3 6563,-2718.3 1740,-1740 2717.4,-4100.8 2717.4,-6562l0 0zm-13346.5 0c0,-1078.9 427.6,-2113.4 1191.1,-2876 762.7,-762.6 1796.3,-1191.2 2875.1,-1191.2 1078.9,0 2113.5,428.6 2876.1,1191.2 762.6,762.6 1191.1,1797.1 1191.1,2876 -81.7,1018.8 -544.8,1969.6 -1295.6,2663.2 -751.7,692.7 -1736.1,1077.9 -2758.8,1077.9 -1021.7,0 -2007,-385.2 -2757.8,-1077.9 -750.8,-693.6 -1213.8,-1644.4 -1295.6,-2663.2l-25.6 0z"/>
   <path class="fil2" d="M117830.8 115459.1c-2461.3,0 -4822,977.4 -6561.9,2718.4 -1741,1740 -2718.4,4100.8 -2718.4,6561.9 0,2461.3 977.4,4822 2718.4,6562 1739.9,1741 4100.7,2718.3 6561.9,2718.3 2461.3,0 4822,-977.3 6561.9,-2718.3 1741,-1740 2718.4,-4100.8 2718.4,-6562 0,-2461.2 -977.4,-4821.9 -2718.4,-6561.9 -1739.9,-1741 -4100.7,-2718.4 -6561.9,-2718.4zm0 13346.7c-1078.9,0 -2112.5,-427.6 -2876,-1190.2 -762.6,-762.6 -1190.3,-1797.2 -1190.3,-2876.1 0,-1078.9 427.7,-2112.5 1190.3,-2875.1 763.5,-763.5 1797.1,-1192.2 2876,-1192.2 1078.9,0 2113.4,428.6 2876,1192.2 762.6,762.6 1191.2,1796.2 1191.2,2875.1 0,1078.9 -428.6,2113.5 -1191.2,2876.1 -762.6,762.6 -1797.1,1190.2 -2876,1190.2z"/>
   <path class="fil3" d="M122523.7 102502.8c-242.3,-244.4 -531,-438.5 -848.3,-570.5 -318.3,-132 -658.2,-200.9 -1003,-200.9 -343.8,0 -684.8,69 -1002,200.9 -318.3,132.1 -606,326.1 -848.3,570.5l-24270.5 24296c-426.5,498.5 -650.3,1139.9 -624.7,1796.2 25.7,656.2 296.6,1278.9 761.7,1743 464.1,464.1 1086.7,736 1742,761.7 656.1,25.6 1298.6,-198.1 1797.1,-624.7l24296 -24296.1c484.9,-488.7 757.7,-1149.8 757.7,-1838.5 0,-688.7 -272.8,-1348.9 -757.7,-1837.5z"/>
  </g>
 </g>
</svg>
