<?xml version="1.0" standalone="no"?>
<!DOCTYPE svg PUBLIC "-//W3C//DTD SVG 20010904//EN"
 "http://www.w3.org/TR/2001/REC-SVG-20010904/DTD/svg10.dtd">
<svg version="1.0" xmlns="http://www.w3.org/2000/svg"
  viewBox="0 0 100.000000 100.000000"
 preserveAspectRatio="xMidYMid meet">

<g transform="translate(0.000000,100.000000) scale(0.100000,-0.100000)"
fill="#000000" stroke="none">
<path d="M358 770 c-11 -18 -24 -20 -104 -20 -65 0 -95 -4 -103 -14 -8 -9 -11
-88 -9 -267 l3 -254 138 -3 c132 -2 139 -2 144 18 5 18 13 20 73 20 60 0 68
-2 73 -20 5 -20 12 -20 144 -18 l138 3 3 254 c2 179 -1 258 -9 267 -8 10 -38
14 -103 14 -80 0 -93 2 -104 20 -11 18 -23 20 -142 20 -119 0 -131 -2 -142
-20z m260 -247 l-3 -248 -115 0 -115 0 -3 248 -2 247 120 0 120 0 -2 -247z
m-268 -14 c0 -228 5 -259 40 -259 11 0 20 -4 20 -10 0 -6 -48 -10 -125 -10
l-125 0 0 243 c0 134 3 247 7 250 3 4 46 7 95 7 l88 0 0 -221z m488 -31 l2
-248 -125 0 c-77 0 -125 4 -125 10 0 6 9 10 20 10 23 0 40 28 40 69 0 16 6 31
13 34 9 3 9 8 -2 21 -13 15 -13 19 0 27 12 8 12 10 -1 20 -11 8 -12 12 -2 16
14 6 16 33 2 33 -6 0 -10 50 -10 130 l0 131 93 -3 92 -3 3 -247z"/>
<path d="M477 720 c-23 -22 -14 -60 13 -60 10 0 22 -4 25 -10 4 -6 -7 -10 -24
-10 -37 0 -43 -25 -8 -34 27 -7 63 25 54 48 -4 9 -19 22 -34 28 l-28 12 33 4
c19 2 32 9 32 18 0 8 -4 14 -9 14 -5 0 -15 2 -23 4 -7 3 -21 -4 -31 -14z"/>
<path d="M420 560 c0 -6 33 -10 80 -10 47 0 80 4 80 10 0 6 -33 10 -80 10 -47
0 -80 -4 -80 -10z"/>
<path d="M420 500 c0 -5 5 -10 10 -10 6 0 10 5 10 10 0 6 -4 10 -10 10 -5 0
-10 -4 -10 -10z"/>
<path d="M470 500 c0 -5 25 -10 55 -10 30 0 55 5 55 10 0 6 -25 10 -55 10 -30
0 -55 -4 -55 -10z"/>
<path d="M420 440 c0 -5 5 -10 10 -10 6 0 10 5 10 10 0 6 -4 10 -10 10 -5 0
-10 -4 -10 -10z"/>
<path d="M470 440 c0 -5 25 -10 55 -10 30 0 55 5 55 10 0 6 -25 10 -55 10 -30
0 -55 -4 -55 -10z"/>
<path d="M434 366 c-15 -12 -17 -18 -8 -33 9 -14 24 -18 74 -18 50 0 65 4 74
18 9 15 7 21 -8 33 -25 18 -107 18 -132 0z m121 -26 c-3 -5 -28 -10 -55 -10
-27 0 -52 5 -55 10 -4 6 17 10 55 10 38 0 59 -4 55 -10z"/>
<path d="M262 678 c-22 -22 -14 -57 13 -64 14 -3 25 -10 25 -15 0 -5 -11 -9
-25 -9 -30 0 -33 -16 -5 -25 47 -15 69 47 25 67 -34 15 -32 28 5 28 35 0 40
15 8 24 -31 8 -32 8 -46 -6z"/>
<path d="M200 510 c0 -6 28 -10 65 -10 37 0 65 4 65 10 0 6 -28 10 -65 10 -37
0 -65 -4 -65 -10z"/>
<path d="M200 430 c0 -5 5 -10 10 -10 6 0 10 5 10 10 0 6 -4 10 -10 10 -5 0
-10 -4 -10 -10z"/>
<path d="M240 430 c0 -5 20 -10 45 -10 25 0 45 5 45 10 0 6 -20 10 -45 10 -25
0 -45 -4 -45 -10z"/>
<path d="M240 390 c0 -5 20 -10 45 -10 25 0 45 5 45 10 0 6 -20 10 -45 10 -25
0 -45 -4 -45 -10z"/>
<path d="M213 314 c-12 -31 11 -49 66 -52 41 -2 51 0 51 12 0 12 -11 16 -50
16 -27 0 -50 5 -50 10 0 6 23 10 50 10 28 0 50 5 50 10 0 6 -25 10 -55 10 -42
0 -57 -4 -62 -16z"/>
<path d="M692 678 c-22 -22 -14 -57 13 -64 35 -9 31 -24 -5 -24 -37 0 -39 -15
-4 -24 51 -13 76 44 29 66 -14 6 -25 15 -25 20 0 4 11 8 25 8 28 0 34 15 9 24
-22 8 -28 8 -42 -6z"/>
<path d="M670 510 c0 -6 28 -10 65 -10 37 0 65 4 65 10 0 6 -28 10 -65 10 -37
0 -65 -4 -65 -10z"/>
<path d="M697 463 c-17 -16 -3 -23 48 -23 42 0 55 3 55 15 0 11 -12 15 -48 15
-27 0 -52 -3 -55 -7z"/>
<path d="M690 410 c0 -5 18 -10 40 -10 22 0 40 5 40 10 0 6 -18 10 -40 10 -22
0 -40 -4 -40 -10z"/>
<path d="M697 373 c-17 -16 -3 -23 48 -23 42 0 55 3 55 15 0 11 -12 15 -48 15
-27 0 -52 -3 -55 -7z"/>
<path d="M670 320 c0 -5 23 -10 50 -10 28 0 50 -4 50 -10 0 -5 -22 -10 -50
-10 -39 0 -50 -4 -50 -16 0 -22 99 -16 113 7 21 33 1 49 -58 49 -30 0 -55 -4
-55 -10z"/>
</g>
</svg>
