<svg xmlns="http://www.w3.org/2000/svg" viewBox="0 0 24 24" fill="none" class="css-19ss7aa"><path fill-rule="evenodd" clip-rule="evenodd" d="M16.597 16.594A6.48 6.48 0 0112 18.498h-1.25v2.5H12a9 9 0 006.364-15.364 9 9 0 00-12.728 0l1.767 1.768a6.5 6.5 0 019.193 9.192zM13.25 8h-2.5v4.518l3.185 3.185 1.768-1.768-2.453-2.453V8zM5.627 9.568v1.2l-.092.006c-.767.062-1.371.29-1.783.662-.41.37-.639.891-.639 1.564 0 .684.24 1.223.676 1.642.438.421 1.08.726 1.889.925l.076.019v1.901l-.123-.029a3.94 3.94 0 01-.838-.305 2.512 2.512 0 01-.596-.4L3.14 17.935c.446.416 1.309.784 2.268.974l.08.016v1.277h1.578v-1.207l.086-.011c.796-.11 1.357-.448 1.718-.891a2.457 2.457 0 00.532-1.562c0-.669-.246-1.177-.668-1.568-.426-.394-1.037-.675-1.772-.874l-.074-.02v-1.802l.125.033c.406.106.816.31 1.099.558l1.035-1.136c-.43-.4-1.102-.697-1.875-.861l-.08-.017V9.568H5.628zm.19 4.272l-.137-.056c-.221-.09-.381-.185-.485-.303a.599.599 0 01-.149-.418c0-.133.028-.298.126-.448.1-.152.265-.279.522-.34l.123-.03v1.595zm1.057 3.678v-1.732l.147.08a.934.934 0 01.376.346.936.936 0 01.122.483.9.9 0 01-.096.429.744.744 0 01-.414.343l-.135.05z" fill="currentColor"></path></svg>